<?xml version="1.0" encoding="UTF-8" standalone="no"?>
<svg
   xmlns:dc="http://purl.org/dc/elements/1.1/"
   xmlns:cc="http://creativecommons.org/ns#"
   xmlns:rdf="http://www.w3.org/1999/02/22-rdf-syntax-ns#"
   xmlns:svg="http://www.w3.org/2000/svg"
   xmlns="http://www.w3.org/2000/svg"
   xmlns:sodipodi="http://sodipodi.sourceforge.net/DTD/sodipodi-0.dtd"
   xmlns:inkscape="http://www.inkscape.org/namespaces/inkscape"
   inkscape:version="1.0 (4035a4f, 2020-05-01)"
   sodipodi:docname="edit-rewrite.svg"
   xml:space="preserve"
   style="enable-background:new 0 0 490.337 490.337;"
   viewBox="0 0 490.337 490.337"
   y="0px"
   x="0px"
   id="Capa_1"
   version="1.1"><metadata
   id="metadata53"><rdf:RDF><cc:Work
       rdf:about=""><dc:format>image/svg+xml</dc:format><dc:type
         rdf:resource="http://purl.org/dc/dcmitype/StillImage" /><dc:title></dc:title></cc:Work></rdf:RDF></metadata><defs
   id="defs51" /><sodipodi:namedview
   inkscape:current-layer="Capa_1"
   inkscape:window-maximized="0"
   inkscape:window-y="23"
   inkscape:window-x="0"
   inkscape:cy="207.3573"
   inkscape:cx="153.78405"
   inkscape:zoom="1.7791439"
   inkscape:pagecheckerboard="true"
   showgrid="false"
   id="namedview49"
   inkscape:window-height="1106"
   inkscape:window-width="1727"
   inkscape:pageshadow="2"
   inkscape:pageopacity="0"
   guidetolerance="10"
   gridtolerance="10"
   objecttolerance="10"
   borderopacity="1"
   bordercolor="#666666"
   pagecolor="#ffffff" />
<g
   inkscape:label="Layer 1"
   id="layer1"
   inkscape:groupmode="layer"><path
     style="fill:#b3b3b3;stroke:#000000;stroke-width:1px;stroke-linecap:butt;stroke-linejoin:miter;stroke-opacity:1"
     d="M 138.83081,256.30304 387.82697,13.489639 450.21652,52.272329 474.38545,109.04121 233.82032,354.10288 111.85155,377.14767 Z"
     id="path911" /></g><g
   id="g16">
	<g
   id="g14">
		<path
   d="M 386.36328 0.359375 C 378.66738 0.29511719 371.61289 3.3796875 365.40039 9.6796875 C 320.40039 54.879688 275.10039 100.17891 229.90039 145.37891 L 182.40039 192.87891 C 164.90039 210.37891 147.30039 227.87812 129.90039 245.57812 C 125.80039 249.77812 122.7 255.37891 121.5 260.87891 C 115.2 289.77891 109.1 318.67816 103 347.57812 L 99.599609 363.57812 C 97.999609 371.37813 100.10039 379.17852 105.40039 384.47852 C 109.50039 388.57852 115.19922 390.87891 121.19922 390.87891 C 122.89922 390.87891 124.60078 390.67891 126.30078 390.37891 L 143.90039 386.67969 C 171.90039 380.77969 200 374.77852 228 368.97852 C 234.5 367.57852 239.99922 364.67852 244.69922 359.97852 C 323.29922 281.27852 401.9 202.67969 480.5 124.17969 C 486.3 118.37969 489.50078 111.47852 490.30078 102.97852 C 490.40078 101.57852 490.3 100.17891 490 98.878906 C 489.5 96.878906 489.09961 94.779297 488.59961 92.779297 C 487.49961 87.679297 486.30039 81.879297 483.90039 76.279297 C 469.20039 42.679297 444.80039 18.679687 411.40039 5.1796875 C 404.70039 2.4796875 397.60039 1.5792969 391.40039 0.77929688 L 389.69922 0.578125 C 388.57422 0.440625 387.4627 0.36855469 386.36328 0.359375 z M 386.40039 24.679688 L 386.90039 24.679688 L 388.59961 24.878906 C 393.79961 25.478906 398.60039 26.079687 402.40039 27.679688 C 429.60039 38.679688 449.59922 58.278906 461.69922 85.878906 C 463.09922 89.078906 464.00039 93.178516 464.90039 97.478516 C 465.20039 99.078516 465.60039 100.6793 465.90039 102.2793 C 465.50039 104.0793 464.80039 105.27812 463.40039 106.57812 C 384.70039 185.07812 306.1 263.77891 227.5 342.37891 C 226.2 343.67891 224.99922 344.27969 223.19922 344.67969 C 195.09922 350.57969 167.1 356.47891 139 362.37891 L 124.19922 365.47852 L 127 352.37891 C 133.1 323.57891 139.20039 294.67891 145.40039 265.87891 C 145.60039 264.97891 146.40078 263.57812 147.30078 262.57812 C 164.70078 244.97813 182.09961 227.47813 199.59961 210.07812 L 247.09961 162.57812 C 292.39961 117.27813 337.70039 71.978125 382.90039 26.578125 C 384.80039 24.978125 385.70039 24.679688 386.40039 24.679688 z "
   id="path10" />
		<path
   sodipodi:nodetypes="sssssssssssssssssss"
   id="path12"
   d="m 38.9,109.379 h 174.6 c 57.66154,0 53.33207,4.13191 75.08221,-12.3 21.82217,-16.486326 -12.6524,-12.3 -75.08221,-12.3 H 38.9 c -21.5,0 -38.9,17.5 -38.9,38.9 v 327.4 c 0,21.5 17.5,38.9 38.9,38.9 h 327.3 c 21.5,0 38.9,-17.5 38.9,-38.9 v -167.5 c 0,-110.78259 -3.8138,-100.54469 -10.6138,-100.54469 -6.8,0 -13.9862,25.17239 -13.9862,100.54469 v 167.5 c 0,7.9 -6.5,14.4 -14.4,14.4 H 38.9 c -7.9,0 -14.4,-6.5 -14.4,-14.4 v -327.3 c 0,-7.9 6.5,-14.4 14.4,-14.4 z" />
	</g>
<path
   id="path72"
   d="m 23.606859,98.361912 255.178901,2.810338 -139.95495,155.13079 -27.54133,112.41361 44.96544,8.43102 83.74814,-29.7896 149.51011,-146.69977 -0.56207,271.47888 -376.585603,1.12413 z"
   style="fill:none;stroke:#000000;stroke-width:1px;stroke-linecap:butt;stroke-linejoin:miter;stroke-opacity:1" /><path
   id="path74"
   d="m 32.767855,463.60962 c -1.60687,-0.80073 -3.67292,-2.36739 -4.591221,-3.48145 -3.661831,-4.44243 -3.387207,9.55759 -3.387207,-172.67617 0,-182.23376 -0.274624,-168.23374 3.387207,-172.67618 0.918301,-1.11405 2.984351,-2.6807 4.591221,-3.48144 l 2.921583,-1.45589 H 150.37615 265.06286 l -69.20161,69.27489 c -74.35853,74.43728 -71.80345,71.68832 -74.05405,79.67315 -0.86699,3.07599 -5.56453,24.81658 -16.94191,78.40849 -5.444954,25.64786 -5.948033,28.5217 -5.757717,32.89071 0.372213,8.54465 4.697117,15.17538 12.240337,18.76625 3.08435,1.46828 4.44141,1.76706 8.71205,1.91814 4.74482,0.16786 8.0571,-0.4516 53.39647,-9.98614 61.80947,-12.99807 58.05317,-12.1232 63.42291,-14.77175 4.5615,-2.24991 4.984,-2.6586 75.04156,-72.58984 l 70.45424,-70.32718 -0.3712,4.77758 c -1.34681,17.33405 -1.53547,30.568 -1.76684,123.936 -0.27844,112.36158 0.003,104.29692 -3.79854,108.6273 -0.96447,1.09846 -3.02007,2.58699 -4.56801,3.30782 l -2.81443,1.31062 -166.68334,0.006 -166.683342,0.006 -2.921583,-1.45589 z"
   style="opacity:0.02;fill:#808080;stroke-width:0.562068" /><path
   id="path76"
   d="m 34.202926,464.26358 c -5.01002,-1.7879 -8.17961,-5.72045 -8.766428,-10.87663 -0.385386,-3.38625 -0.525903,-323.41525 -0.145131,-330.53721 0.186169,-3.48213 0.495502,-4.54013 1.967238,-6.72844 0.960483,-1.42813 2.991128,-3.36277 4.512546,-4.29919 l 2.766212,-1.70258 115.264597,-0.14454 115.26459,-0.14454 -69.45357,69.55995 c -74.54024,74.6544 -71.54118,71.42795 -73.80055,79.39613 -0.87068,3.07065 -5.51104,24.53994 -16.94714,78.40849 -5.444954,25.64786 -5.948033,28.5217 -5.757717,32.89071 0.372213,8.54465 4.697117,15.17538 12.240337,18.76625 3.08325,1.46775 4.44294,1.76729 8.71205,1.91928 4.76514,0.16965 8.1564,-0.47318 58.45508,-11.08052 50.86942,-10.72769 53.62257,-11.37091 58.17405,-13.59115 l 4.77758,-2.33054 70.2211,-70.18697 c 38.62161,-38.60283 70.32437,-70.08371 70.45058,-69.95749 0.12622,0.12621 -0.0469,3.72623 -0.38474,8.00003 -1.23745,15.65496 -1.77343,54.08651 -1.91523,137.32725 -0.0798,46.83432 -0.30599,85.69767 -0.5027,86.363 -1.12889,3.81823 -3.89579,6.81588 -8.03129,8.70107 -2.15972,0.98452 -8.801,1.02439 -168.62042,1.01256 C 65.138854,465.0183 35.946417,464.88577 34.202926,464.26358 Z"
   style="opacity:0.02;fill:#ffffff;stroke-width:0.562068" /><path
   id="path78"
   d="m 34.202926,464.26358 c -5.01002,-1.7879 -8.17961,-5.72045 -8.766428,-10.87663 -0.385386,-3.38625 -0.525903,-323.41525 -0.145131,-330.53721 0.186169,-3.48213 0.495502,-4.54013 1.967238,-6.72844 0.960483,-1.42813 2.991128,-3.36277 4.512546,-4.29919 l 2.766212,-1.70258 115.264597,-0.14454 115.26459,-0.14454 -69.45357,69.55995 c -74.54024,74.6544 -71.54118,71.42795 -73.80055,79.39613 -0.87068,3.07065 -5.51104,24.53994 -16.94714,78.40849 -5.444954,25.64786 -5.948033,28.5217 -5.757717,32.89071 0.372213,8.54465 4.697117,15.17538 12.240337,18.76625 3.08325,1.46775 4.44294,1.76729 8.71205,1.91928 4.76514,0.16965 8.1564,-0.47318 58.45508,-11.08052 50.86942,-10.72769 53.62257,-11.37091 58.17405,-13.59115 l 4.77758,-2.33054 70.2211,-70.18697 c 38.62161,-38.60283 70.32437,-70.08371 70.45058,-69.95749 0.12622,0.12621 -0.0469,3.72623 -0.38474,8.00003 -1.23745,15.65496 -1.77343,54.08651 -1.91523,137.32725 -0.0798,46.83432 -0.30599,85.69767 -0.5027,86.363 -1.12889,3.81823 -3.89579,6.81588 -8.03129,8.70107 -2.15972,0.98452 -8.801,1.02439 -168.62042,1.01256 C 65.138854,465.0183 35.946417,464.88577 34.202926,464.26358 Z"
   style="opacity:0.02;fill:#ffffff;stroke-width:0.562068" /><path
   id="path80"
   d="m 31.25321,488.89835 c -2.163962,-0.44713 -6.337318,-1.98283 -9.274123,-3.41265 -4.461124,-2.17195 -6.134916,-3.39522 -10.173281,-7.43494 -3.875791,-3.87709 -5.2953248,-5.782 -7.1634969,-9.61284 -4.74677308,-9.73365 -4.30284296,8.93891 -4.30284296,-180.98592 0,-159.32376 0.0560376,-169.11969 0.98821566,-172.75011 C 4.2322296,103.38997 12.356144,93.577385 22.822189,88.739417 30.99308,84.962399 21.848502,85.211125 158.56163,85.047383 c 68.1648,-0.08164 125.58757,0.04845 127.60614,0.289094 l 3.67014,0.437525 39.89014,-39.904071 39.89014,-39.9040729 4.86947,-2.3710468 c 4.3224,-2.1046624 5.42749,-2.4008137 9.83619,-2.6359989 9.0893,-0.484874 20.37884,1.7792409 30.54082,6.1249519 28.28151,12.0944327 51.47496,34.2257727 65.36683,62.3734307 4.35383,8.82172 5.87901,13.281719 8.26138,24.158348 1.61515,7.373937 1.70841,8.342587 1.12547,11.690097 -0.84729,4.86546 -2.37434,9.07843 -4.5662,12.59763 -1.0869,1.7451 -17.72754,18.86292 -41.88239,43.08342 l -40.07895,40.18786 0.6085,8.14999 c 0.39605,5.30448 0.69851,49.55707 0.86628,126.74635 0.28991,133.37538 0.61494,122.78694 -4.05971,132.25573 -4.51097,9.13725 -12.72526,16.15209 -23.01874,19.65755 l -4.49655,1.5313 -168.90145,0.0979 c -145.433325,0.0843 -169.448132,-0.015 -172.83593,-0.71505 z m 339.3344,-23.85848 c 3.20377,-0.88976 6.66676,-3.85682 8.42119,-7.21519 l 1.56971,-3.00476 0.005,-88.60206 c 0.005,-86.17288 0.43683,-118.02295 1.85044,-136.23842 l 0.68708,-8.85367 -70.82686,70.73049 c -44.20979,44.1495 -71.91517,71.40713 -73.72255,72.53099 -4.54296,2.82487 -7.3892,3.59886 -33.09199,8.99899 -13.28456,2.79108 -36.80028,7.758 -52.25715,11.03761 -26.06596,5.53063 -28.47242,5.94843 -33.19349,5.76304 -4.2253,-0.16593 -5.65649,-0.477 -8.42384,-1.83094 -7.15566,-3.50094 -11.50203,-10.05458 -11.939219,-18.00248 -0.227519,-4.1361 0.374869,-7.43234 7.446999,-40.74993 14.91667,-70.27407 15.20705,-71.53457 17.51455,-76.02819 1.95405,-3.80534 6.51713,-8.50035 71.96903,-74.04996 38.43548,-38.49286 69.88269,-70.19948 69.88269,-70.45916 0,-0.25968 -0.42639,-0.30853 -0.94753,-0.10854 -0.52114,0.19997 -52.43515,0.36216 -115.36447,0.36042 -92.152451,-0.003 -114.809618,0.13824 -116.434885,0.72356 -3.400118,1.22451 -5.997322,3.63727 -7.801231,7.24721 l -1.703225,3.40845 0.02467,166.42289 c 0.02651,178.82097 -0.146632,168.21104 2.81553,172.53402 1.418605,2.07033 4.278188,4.22671 6.932838,5.22799 2.344119,0.88416 333.412953,1.03922 336.587213,0.15764 z m -197.04593,-109.598 c 26.53893,-5.57568 49.26433,-10.39928 50.50088,-10.71912 1.97422,-0.51064 16.75996,-15.08393 121.30253,-119.55962 65.47985,-65.43794 119.4173,-119.66108 119.86102,-120.49586 1.11591,-2.0994 1.03247,-3.14969 -0.86175,-10.847718 -2.59427,-10.542936 -9.91139,-24.268807 -18.57724,-34.848221 -4.43897,-5.419166 -13.41875,-14.01198 -18.81799,-18.007059 -5.77398,-4.272362 -14.23616,-9.157554 -21.00506,-12.126162 -5.19045,-2.276358 -14.29318,-4.372346 -19.17967,-4.416298 -1.86987,-0.01682 -7.66134,5.678233 -120.7291,118.719208 -65.32076,65.30529 -119.23416,119.49568 -119.80755,120.42309 -0.5734,0.92741 -2.19471,7.12421 -3.60291,13.77067 -6.92699,32.69415 -17.80391,83.84728 -18.26834,85.91432 -0.40502,1.80259 -0.3587,2.33036 0.20449,2.33036 0.40045,0 22.44176,-4.56192 48.98069,-10.13759 z"
   style="opacity:0.02;fill:#ffffff;stroke-width:0.562068" /><path
   id="path82"
   d="m 34.202926,464.26358 c -5.01002,-1.7879 -8.17961,-5.72045 -8.766428,-10.87663 -0.385386,-3.38625 -0.525903,-323.41525 -0.145131,-330.53721 0.186169,-3.48213 0.495502,-4.54013 1.967238,-6.72844 0.960483,-1.42813 2.991128,-3.36277 4.512546,-4.29919 l 2.766212,-1.70258 115.264597,-0.14454 115.26459,-0.14454 -69.45357,69.55995 c -74.54024,74.6544 -71.54118,71.42795 -73.80055,79.39613 -0.87068,3.07065 -5.51104,24.53994 -16.94714,78.40849 -5.444954,25.64786 -5.948033,28.5217 -5.757717,32.89071 0.372213,8.54465 4.697117,15.17538 12.240337,18.76625 3.08325,1.46775 4.44294,1.76729 8.71205,1.91928 4.76514,0.16965 8.1564,-0.47318 58.45508,-11.08052 50.86942,-10.72769 53.62257,-11.37091 58.17405,-13.59115 l 4.77758,-2.33054 70.2211,-70.18697 c 38.62161,-38.60283 70.32437,-70.08371 70.45058,-69.95749 0.12622,0.12621 -0.0469,3.72623 -0.38474,8.00003 -1.23745,15.65496 -1.77343,54.08651 -1.91523,137.32725 -0.0798,46.83432 -0.30599,85.69767 -0.5027,86.363 -1.12889,3.81823 -3.89579,6.81588 -8.03129,8.70107 -2.15972,0.98452 -8.801,1.02439 -168.62042,1.01256 C 65.138854,465.0183 35.946417,464.88577 34.202926,464.26358 Z"
   style="opacity:0.02;fill:#000080;stroke-width:0.562068" /><path
   id="path84"
   d="m 71.722111,489.19816 c -22.567033,-0.17452 -41.410365,-0.43457 -41.874071,-0.57787 -0.463706,-0.14331 -1.096033,-0.40994 -1.40517,-0.59251 -0.948159,-0.55995 -5.032869,-1.84115 -5.480164,-1.7189 -0.231853,0.0634 -0.421551,-0.15264 -0.421551,-0.48002 0,-0.32739 -0.252931,-0.43892 -0.562068,-0.24787 -0.309138,0.19106 -0.562068,0.0646 -0.562068,-0.28103 0,-0.34563 -0.252931,-0.47209 -0.562068,-0.28103 -0.309138,0.19105 -0.562068,0.0843 -0.562068,-0.23716 0,-0.32149 -0.5874,-0.73196 -1.305334,-0.91215 -0.717933,-0.18019 -3.816334,-2.90401 -6.885334,-6.05294 C 6.0210272,471.57712 2.8459967,466.33673 1.6338676,460.53868 0.89520741,457.0054 0.03576037,121.16006 0.76422677,120.70994 c 0.23361837,-0.14436 0.39162563,-1.3216 0.35112723,-2.6161 -0.1107497,-3.54002 2.3925575,-10.69183 4.9738864,-14.21012 0.701842,-0.95659 1.2760766,-1.90508 1.2760766,-2.10775 0,-0.20268 0.4426286,-0.82529 0.9836191,-1.38359 0.5409905,-0.558307 2.0150509,-2.139123 3.2756889,-3.51293 2.792077,-3.042722 6.082979,-5.409141 10.91653,-7.849837 4.14278,-2.091894 6.263309,-2.708252 10.679293,-3.104083 1.700256,-0.152404 60.253669,-0.402901 130.118692,-0.556661 l 127.02733,-0.279567 39.34482,-39.250219 c 34.66322,-34.579864 42.01938,-41.5463746 44.39389,-42.042345 0.31439,-0.065668 2.01725,-0.7251687 3.78414,-1.4655563 2.84804,-1.1934267 3.93293,-1.3293294 9.5621,-1.1978255 3.83169,0.089513 8.57568,0.6273999 11.96332,1.3564338 3.08755,0.6644552 5.99313,1.2791383 6.45684,1.3659626 0.4637,0.086824 1.26598,0.338927 1.78283,0.5602282 0.51685,0.2213013 1.27564,0.4699957 1.6862,0.5526543 0.41056,0.082659 1.96887,0.6955038 3.4629,1.3618782 1.49403,0.6663744 2.85036,1.21159 3.01407,1.21159 0.28502,0 7.85526,3.7948147 11.97465,6.0026637 3.16686,1.697323 13.72947,8.822265 14.22015,9.592106 0.24721,0.387862 0.81631,0.705204 1.26465,0.705204 0.44835,0 0.81518,0.208767 0.81518,0.463927 0,0.25516 1.58081,1.747818 3.51292,3.317017 6.29528,5.112829 13.94924,13.326741 20.04564,21.512119 1.72681,2.318531 3.32937,4.299821 3.56122,4.402867 0.23185,0.103046 0.42155,0.381693 0.42155,0.619216 0,0.237524 1.37633,2.682521 3.0585,5.433328 6.80236,11.123686 10.30956,19.687395 13.32763,32.542796 1.42068,6.051309 1.6602,8.031253 1.39393,11.522393 -0.42198,5.53265 -0.41814,5.51857 -3.13746,11.5224 -1.71741,3.79179 -10.5318,13.02146 -57.70367,60.42232 l -25.45055,25.57409 0.51627,15.45687 c 0.84752,25.37416 0.9678,235.96844 0.13797,241.5761 -1.05092,7.10176 -4.584,13.58755 -10.85456,19.92607 -2.67595,2.70496 -5.13565,4.9181 -5.46601,4.9181 -0.33035,0 -0.68496,0.19574 -0.78801,0.43498 -0.29563,0.68637 -9.02334,4.50185 -11.76229,5.14211 -2.81666,0.65842 -235.22974,1.0949 -303.183179,0.56938 z M 371.16501,464.82565 c 3.20728,-1.14457 5.88068,-3.45485 7.73082,-6.68079 l 1.67213,-2.91554 0.0237,-72.78782 c 0.0309,-94.84331 0.80701,-144.75918 2.48124,-159.5763 0.19566,-1.73163 -4.12369,2.41107 -44.83973,43.00588 -39.01056,38.89441 -78.00488,77.56305 -94.22392,93.43697 -2.63497,2.57891 -6.0516,5.33224 -7.59252,6.11851 -2.3993,1.22428 -14.34892,4.60267 -19.47308,5.50542 -1.38237,0.24354 -7.80623,1.59219 -10.60624,2.22672 -0.4637,0.10508 -3.49887,0.73139 -6.74481,1.3918 -3.24595,0.66041 -8.68396,1.80934 -12.08447,2.55318 -5.78797,1.26608 -22.59507,4.82333 -37.37752,7.91101 -3.55508,0.74256 -10.51068,2.1126 -15.45688,3.04452 -4.94619,0.93192 -10.02519,1.90127 -11.28667,2.1541 -1.26146,0.25283 -2.77905,0.26943 -3.3724,0.0369 -0.59336,-0.23254 -1.9172,-0.44058 -2.94187,-0.4623 -4.6616,-0.0988 -11.51089,-4.84975 -14.6179,-10.13949 -0.81153,-1.38164 -1.52678,-2.77275 -1.58946,-3.09137 -0.0627,-0.31862 -0.3958,-1.97043 -0.74029,-3.67069 -0.674385,-3.32843 -0.493843,-5.60551 1.13638,-14.33274 0.57746,-3.09137 1.1662,-6.253 1.3083,-7.02585 0.1421,-0.77284 1.02122,-4.9462 1.95361,-9.27412 0.93238,-4.32792 1.81763,-8.50128 1.96723,-9.27412 0.1496,-0.77285 1.03486,-4.9462 1.96724,-9.27413 0.93238,-4.32792 1.81853,-8.50128 1.96921,-9.27412 0.15069,-0.77284 0.65832,-3.18832 1.12808,-5.36774 0.46975,-2.17941 0.97545,-4.58225 1.12378,-5.33964 0.14832,-0.7574 1.53937,-7.19449 3.09122,-14.30465 1.55185,-7.11016 2.93469,-13.55989 3.07298,-14.33273 0.13829,-0.77285 0.51545,-2.4169 0.83815,-3.65345 0.32268,-1.23655 0.71387,-3.00706 0.86928,-3.93447 0.7857,-4.68855 3.41212,-12.66007 4.99582,-15.16294 0.98252,-1.55278 12.39801,-13.50956 25.36774,-26.57062 12.96973,-13.06105 23.35072,-23.74737 23.06886,-23.74737 -0.28187,0 20.35112,-20.87814 45.85108,-46.39587 25.49996,-25.51772 46.40577,-46.44773 46.45737,-46.51113 0.0516,-0.0634 -51.54626,-0.0551 -114.66189,0.0184 -82.648057,0.0963 -115.381125,0.30985 -116.991053,0.76338 -3.741962,1.05415 -6.668798,3.48027 -8.624033,7.14867 l -1.787135,3.35303 v 166.33198 c 0,180.69811 -0.186665,169.76024 2.957307,173.28707 1.791986,2.0102 4.910978,4.24838 6.878884,4.93626 1.161163,0.40589 53.577762,0.59556 168.33939,0.60912 137.84129,0.0163 167.01777,-0.1104 168.76207,-0.73288 z M 133.60242,363.85318 c 7.86961,-1.62149 15.02785,-3.11421 26.92645,-5.61505 4.6189,-0.9708 14.30041,-2.98623 17.67705,-3.6799 0.75739,-0.15559 3.16023,-0.67385 5.33964,-1.1517 2.17942,-0.47784 5.73309,-1.22153 7.89705,-1.65264 2.16396,-0.43112 5.57852,-1.16229 7.58792,-1.62484 2.00939,-0.46256 8.58559,-1.88237 14.61377,-3.15516 6.02818,-1.27278 11.59265,-2.64946 12.3655,-3.0593 2.53859,-1.34621 239.35035,-238.73563 239.73083,-240.31563 0.88124,-3.659386 -2.58734,-15.913493 -6.89116,-24.345728 -10.78345,-21.127408 -27.99638,-38.331188 -48.27148,-48.245817 -8.61871,-4.214591 -17.00174,-6.60327 -23.17408,-6.60327 H 384.7944 L 265.25439,143.98413 C 159.05414,250.21989 145.65371,263.815 145.17063,265.81238 c -1.25933,5.20692 -3.59696,15.7237 -5.18478,23.32582 -0.93624,4.4825 -2.58937,12.32335 -3.67361,17.42412 -1.08425,5.10076 -2.31407,10.91817 -2.73293,12.92756 -0.41887,2.00939 -1.65644,7.8268 -2.75017,12.92757 -1.09372,5.10076 -2.11383,9.90645 -2.26691,10.67929 -0.15308,0.77284 -1.07034,5.07266 -2.03836,9.55516 -2.68666,12.44078 -2.76131,12.92756 -1.98249,12.92756 0.37557,0 4.45303,-0.77682 9.06104,-1.72628 z"
   style="opacity:0.02;fill:#000080;stroke-width:0.562068" /><path
   id="path86"
   d="m 45.585946,464.54041 c -11.723154,-0.30849 -12.145092,-0.36002 -14.112244,-1.72317 -2.037086,-1.41162 -4.142685,-3.75028 -5.384579,-5.98058 -0.881464,-1.58301 -1.030364,-32.26739 -0.973339,-200.57944 0.03567,-105.2868 0.195606,-134.39383 0.751076,-136.6915 0.561463,-2.32245 1.272838,-3.44974 3.479499,-5.51381 4.935013,-4.61613 -6.64738,-4.21342 121.182411,-4.21342 h 114.53409 l -69.21496,69.27489 c -56.20398,56.25266 -69.56798,69.90883 -71.09301,72.6473 -1.03293,1.85482 -1.90137,3.49887 -1.92987,3.65344 -0.0285,0.15457 -0.21056,0.66043 -0.40458,1.12414 -0.31105,0.74337 -0.79533,2.74153 -3.26048,13.45298 -0.51223,2.22574 -1.17135,5.42615 -1.97541,9.59181 -0.14917,0.77284 -0.7341,3.42861 -1.29985,5.90171 -0.56575,2.4731 -1.45353,6.51999 -1.97285,8.99309 -0.51933,2.4731 -1.18124,5.50827 -1.47093,6.74482 -0.28967,1.23655 -0.91504,4.14525 -1.38968,6.46378 -1.28557,6.27971 -2.50485,12.1679 -3.43344,16.58101 -0.45535,2.16396 -0.95085,4.5668 -1.10114,5.33965 -0.15028,0.77284 -0.64093,2.92275 -1.09034,4.77757 -0.44941,1.85483 -1.18691,5.26939 -1.63888,7.58792 -0.45199,2.31853 -0.93581,4.72138 -1.07519,5.33965 -4.378633,19.42393 -4.669953,24.85147 -1.67574,31.22029 2.16651,4.60823 5.66443,8.108 10.3114,10.31684 3.01557,1.4334 4.49928,1.77089 8.49797,1.93305 5.00416,0.20292 5.22017,0.16804 25.50715,-4.11975 5.25533,-1.11075 12.08446,-2.53353 15.17584,-3.16172 3.09137,-0.6282 6.00007,-1.2262 6.46378,-1.3289 0.4637,-0.1027 3.87827,-0.82116 7.58792,-1.59659 3.70965,-0.77542 10.91817,-2.30235 16.01894,-3.39318 5.10076,-1.09082 16.46259,-3.50778 25.2485,-5.37101 13.53259,-2.86985 16.71816,-3.74115 20.84029,-5.70008 l 4.86592,-2.31241 66.30849,-66.41731 c 36.46966,-36.52953 68.14453,-68.03749 70.3886,-70.0177 l 4.08011,-3.60038 -0.30683,3.88142 c -0.76842,9.72047 -0.91043,12.97076 -1.40968,32.26585 -0.29196,11.28351 -0.60928,59.78281 -0.70517,107.7762 -0.0959,47.9934 -0.36403,87.26088 -0.59588,87.26107 -0.23185,1.9e-4 -0.42155,0.54339 -0.42155,1.20711 0,1.84107 -3.57067,5.79677 -6.58301,7.29287 l -2.69111,1.33656 -155.97389,0.037 c -85.78564,0.0204 -161.4119,-0.10613 -168.058354,-0.28103 z"
   style="opacity:1;fill:#f9f9f9;stroke-width:0.56206799" /></g>
<g
   id="g18">
</g>
<g
   id="g20">
</g>
<g
   id="g22">
</g>
<g
   id="g24">
</g>
<g
   id="g26">
</g>
<g
   id="g28">
</g>
<g
   id="g30">
</g>
<g
   id="g32">
</g>
<g
   id="g34">
</g>
<g
   id="g36">
</g>
<g
   id="g38">
</g>
<g
   id="g40">
</g>
<g
   id="g42">
</g>
<g
   id="g44">
</g>
<g
   id="g46">
</g>
<rect
   y="0.79471153"
   x="0.79471457"
   height="142.25336"
   width="94.570679"
   id="rect55"
   style="opacity:0.02;fill:none" /><rect
   y="61.192787"
   x="31.78846"
   height="67.550476"
   width="42.914421"
   id="rect57"
   style="opacity:0.02;fill:none" /><rect
   y="113.64375"
   x="53.24567"
   height="58.013939"
   width="35.762016"
   id="rect59"
   style="opacity:0.02;fill:none" /></svg>
